<svg version="1.2" xmlns="http://www.w3.org/2000/svg" viewBox="0 0 1280 588" width="1280" height="588">
	<title>contactUs-svg</title>
	<style>
		tspan { white-space:pre } 
		.s0 { fill: #e3ecfb } 
		.s1 { fill: #3f3334 } 
		.s2 { fill: #f46c0f } 
		.s3 { fill: #fff200 } 
		.s4 { fill: #b0713d } 
		.s5 { fill: none;stroke: #194459 } 
		.s6 { fill: #a1c5ef } 
		.s7 { opacity: .1;fill: #114068 } 
		.s8 { fill: none } 
		.s9 { fill: #f05d24 } 
		.s10 { fill: #0e2d3d } 
		.s11 { fill: #ffae8a } 
		.s12 { fill: #f79b77 } 
		.s13 { opacity: .5;fill: #ffbca1 } 
		.s14 { fill: #be1e2d } 
		.s15 { fill: #990719 } 
		.s16 { fill: #f4b425 } 
		.s17 { fill: #f4885d } 
		.s18 { fill: #162968 } 
		.s19 { fill: #122456 } 
		.s20 { fill: #5d93f4 } 
		.s21 { opacity: .5;fill: #0952aa } 
		.s22 { opacity: .2;fill: #ffffff } 
		.s23 { opacity: .6;fill: #114068 } 
		.t24 { font-size: 13px;fill: #000000;font-weight: 400;font-family: "LiberationSans", "Liberation Sans" } 
	</style>
	<g id="Layer">
		<g id="Layer">
			<path id="Layer" fill-rule="evenodd" class="s0" d="m1178.7 578.2h-1109.7l-0.9-0.6c-0.5-0.4-50.4-35.3-0.2-76.7c50.1-41.4 59.9-57.9 33.4-94.9c-4.6-6.4-10.5-13.4-16.7-20.8c-31.3-37.1-70.1-83.3 1.2-118.9q8.5-4.2 16.6-8.3c72.8-36.1 120.9-60 139.3-102.7c7.5-17.4 24-42.4 59.5-62.3c33.5-18.7 75.5-28.2 124.9-28.2c38.4 0 80.9 5.9 126.4 17.6c134.4 34.4 181.9 44.4 237.5 44.4c18.5 0 38.3-1.1 64.1-2.6c10.3-0.6 20.9-0.9 31.5-0.9c67.7 0 126.4 12 161 32.7c27.5 16.5 40.4 38.1 38.5 64.3c-1.2 15.8-3.1 29.1-4.7 40.9c-6.7 48-9.2 65.9 53.1 96.8c90.4 44.8 150 125.9 46.1 219.4zm-1106.8-3.4h1103.5c100.6-91.3 42.4-170.5-45.8-214.2c-64.7-32-61.9-51.8-55.2-99.6c1.6-11.8 3.5-25.1 4.6-40.8c1.9-25.2-10.4-46-36.7-61.8c-33.6-20.1-90.7-31.6-156.7-31.6c-10.4 0-20.8 0.3-30.9 0.9c-26 1.5-45.9 2.5-64.7 2.5c-56.7 0-104.6-10-239.9-44.7c-44.8-11.4-86.5-17.2-124-17.2c-33 0-143.3 6.3-178.6 87.9c-18.8 43.7-67.5 67.9-141.2 104.5q-8 4-16.6 8.2c-67.8 33.9-30.1 78.8 0.3 114.9c6.3 7.4 12.2 14.4 16.8 20.9c29 40.4 14.6 58.1-33.9 98.1c-44.1 36.4-7.2 67.3-1 71.9z" />
		</g>
		<path id="Layer" class="s0" d="m92.1 576.5c0 0-47.6-32.5 0-71.8c47.6-39.3 59.1-55.6 32.4-92.8c-26.7-37.2-96.1-92.4-15.7-132.5c80.4-40.2 131.7-63 150.9-107.6c25.1-58.2 115.8-115 295-69.1c179.2 45.9 196.3 45.9 291.5 40.4c95.2-5.4 224.7 14.3 219 90.7c-5.7 76.5-28.6 96 47.6 133.8c76.2 37.7 148.5 114.6 43.8 208.9c0 0-1064.5 0-1064.5 0z" />
	</g>
	<g id="Layer">
		<path id="Layer" class="s0" d="m1203.7 101.8c-1 41.9-35.8 75-77.8 74c-42-1.1-75.1-35.9-74-77.8c1-42 35.8-75.1 77.8-74.1c42 1.1 75.1 35.9 74 77.9z" />
		<path id="Layer" class="s1" d="m1172.3 74.2q-22.5 20.2-45 40.5c-1.7 1.5-3.7 1.8-5.8 0.8q-15-7.6-30.1-15.2c-5.6-2.7-0.7-11 4.8-8.2q13.5 6.8 27 13.5q21.2-19.1 42.4-38.2c4.6-4.1 11.3 2.6 6.7 6.8z" />
		<g id="Layer">
			<g id="Layer">
				<g id="Layer">
					<path id="Layer" class="s2" d="m1127.8 40.6c-2.2 0-3.9-1.7-3.9-3.9c0-2.2 1.7-3.9 3.9-3.9c2.2 0 3.9 1.7 3.9 3.9c0 2.2-1.7 3.9-3.9 3.9z" />
					<path id="Layer" class="s2" d="m1131.7 163.9c0 2.2-1.7 3.9-3.9 3.9c-2.2 0-3.9-1.7-3.9-3.9c0-2.2 1.7-3.9 3.9-3.9c2.2 0 3.9 1.7 3.9 3.9z" />
				</g>
				<g id="Layer">
					<path id="Layer" class="s2" d="m1191.4 104.2c-2.2 0-3.9-1.7-3.9-3.9c0-2.2 1.7-3.9 3.9-3.9c2.2 0 3.9 1.7 3.9 3.9c0 2.2-1.7 3.9-3.9 3.9z" />
					<path id="Layer" class="s2" d="m1064.2 104.2c-2.2 0-4-1.7-4-3.9c0-2.2 1.8-3.9 4-3.9c2.2 0 3.9 1.7 3.9 3.9c0 2.2-1.7 3.9-3.9 3.9z" />
				</g>
			</g>
			<g id="Layer">
				<g id="Layer">
					<path id="Layer" class="s2" d="m1163.3 47.4c-1.1 1.9-3.5 2.5-5.4 1.4c-1.9-1.1-2.5-3.5-1.4-5.4c1.1-1.9 3.5-2.5 5.4-1.4c1.9 1.1 2.5 3.5 1.4 5.4z" />
					<path id="Layer" class="s2" d="m1099.1 157.2c-1.1 1.9-3.5 2.5-5.4 1.4c-1.9-1.1-2.5-3.5-1.4-5.4c1.1-1.9 3.5-2.5 5.4-1.4c1.9 1.1 2.5 3.5 1.4 5.4z" />
				</g>
				<g id="Layer">
					<path id="Layer" class="s2" d="m1180.7 135.8c-1.9-1.1-2.5-3.5-1.4-5.4c1.1-1.9 3.5-2.5 5.4-1.4c1.9 1.1 2.5 3.5 1.4 5.4c-1.1 1.9-3.5 2.5-5.4 1.4z" />
					<path id="Layer" class="s2" d="m1070.9 71.6c-1.9-1.1-2.5-3.5-1.4-5.4c1.1-1.9 3.5-2.5 5.4-1.4c1.9 1.1 2.5 3.5 1.4 5.4c-1.1 1.9-3.5 2.5-5.4 1.4z" />
				</g>
			</g>
			<g id="Layer">
				<g id="Layer">
					<path id="Layer" class="s2" d="m1093.7 42c1.9-1.1 4.3-0.5 5.4 1.4c1.1 1.9 0.5 4.3-1.4 5.4c-1.9 1.1-4.3 0.5-5.4-1.4c-1.1-1.9-0.5-4.3 1.4-5.4z" />
					<path id="Layer" class="s2" d="m1157.9 151.8c1.9-1.1 4.3-0.5 5.4 1.4c1.1 1.9 0.5 4.3-1.4 5.4c-1.9 1.1-4.3 0.5-5.4-1.4c-1.1-1.9-0.5-4.3 1.4-5.4z" />
				</g>
				<g id="Layer">
					<path id="Layer" class="s2" d="m1069.5 134.4c-1.1-1.9-0.5-4.3 1.4-5.4c1.9-1.1 4.3-0.5 5.4 1.4c1.1 1.9 0.5 4.3-1.4 5.4c-1.9 1.1-4.3 0.5-5.4-1.4z" />
					<path id="Layer" class="s2" d="m1179.3 70.2c-1.1-1.9-0.5-4.3 1.4-5.4c1.9-1.1 4.3-0.5 5.4 1.4c1.1 1.9 0.5 4.3-1.4 5.4c-1.9 1.1-4.3 0.5-5.4-1.4z" />
				</g>
			</g>
		</g>
	</g>
	<g id="Layer">
		<path id="Layer" class="s3" d="m124.1 201.4h559.2v334.4h-559.2z" />
		<path id="Layer" class="s4" d="m124.1 201.4c93.2 52.5 189.3 109.3 281.4 164.2h-3.6c41.2-24.6 99.4-59.1 140.2-82.9c45.5-26.7 95.4-55.6 141.2-81.3c-44.3 28.2-93.4 58.4-138.4 86c-40 24.7-98.5 59.6-139.4 84.2l-1.8 1.1l-1.8-1.1c-91.9-55.2-187.4-112.9-277.8-170.2z" />
		<path id="Layer" class="s4" d="m359.6 342.2c-75 67.9-154.3 133.1-235.5 193.6c75.1-67.9 154.4-133.1 235.5-193.6z" />
		<path id="Layer" class="s4" d="m683.3 535.8c-81.1-60.5-160.4-125.6-235.5-193.6c81.2 60.5 160.4 125.7 235.5 193.6z" />
	</g>
	<path id="Layer" class="s5" d="m67.7 578.4h1128.5" />
	<g id="Layer">
		<g id="Layer">
			<path id="Layer" class="s6" d="m505.4 37.5v58c0 9.9-8 18-18 18h-52.9v27.7l-22.9-27.7h-73.9c-9.9 0-17.9-8.1-17.9-18v-58c0-10 8-18 17.9-18h149.7c10 0 18 8 18 18z" />
			<g id="Layer">
				<path id="Layer" class="s1" d="m375.4 64.8c0 5.7-4.6 10.3-10.3 10.3c-5.6 0-10.2-4.6-10.2-10.3c0-5.7 4.6-10.3 10.2-10.3c5.7 0 10.3 4.6 10.3 10.3z" />
				<path id="Layer" class="s1" d="m422.8 64.8c0 5.7-4.6 10.3-10.2 10.3c-5.7 0-10.3-4.6-10.3-10.3c0-5.7 4.6-10.3 10.3-10.3c5.6 0 10.2 4.6 10.2 10.3z" />
				<path id="Layer" class="s1" d="m470.3 64.8c0 5.7-4.6 10.3-10.3 10.3c-5.7 0-10.3-4.6-10.3-10.3c0-5.7 4.6-10.3 10.3-10.3c5.7 0 10.3 4.6 10.3 10.3z" />
			</g>
		</g>
		<path id="Layer" class="s7" d="m505.4 37.5v58c0 9.9-8 18-18 18h-52.9v27.7l-22.9-27.7h-38.9c44.1-13.7 96-41.1 92.7-94h22c10 0 18 8 18 18z" />
	</g>
	<path id="Layer" class="s8" d="m280.7 69.3h723.1v457.9h-723.1z" />
	<g id="Layer">
		<path id="Layer" fill-rule="evenodd" class="s6" d="m1183.2 364.1c0 0 0 17-6.1 19.9c-2.6 1.2-7.5 0.1-12.1-1.4c-1.4 4.7-3.3 9.2-5.6 13.5c4.3 2.1 8.6 4.9 9.5 7.5c2.2 6.5-9.8 18.5-9.8 18.5c0 0-12 12-18.4 9.7c-2.6-0.9-5.4-5.2-7.5-9.5c-4.3 2.3-8.8 4.2-13.5 5.6c1.5 4.6 2.6 9.5 1.4 12.1c-3 6.1-20 6.1-20 6.1c0 0-17 0-19.9-6.1c-1.2-2.6-0.1-7.5 1.4-12.1c-4.7-1.4-9.2-3.3-13.5-5.6c-2.1 4.3-4.9 8.6-7.5 9.5c-6.5 2.2-18.5-9.8-18.5-9.8c0 0-12-12-9.8-18.4c1-2.6 5.3-5.4 9.6-7.5c-2.3-4.3-4.2-8.8-5.6-13.5c-4.6 1.5-9.5 2.6-12.1 1.4c-6.1-3.1-6.1-20-6.1-20c0 0 0-17 6.1-19.9c2.6-1.2 7.5-0.1 12.1 1.4c1.4-4.7 3.3-9.3 5.6-13.5c-4.3-2.1-8.6-4.9-9.5-7.5c-2.2-6.5 9.8-18.5 9.8-18.5c0 0 12-12 18.4-9.8c2.6 1 5.4 5.3 7.5 9.6c4.3-2.3 8.8-4.2 13.5-5.6c-1.5-4.6-2.6-9.6-1.4-12.1c3-6.1 20-6.1 20-6.1c0 0 17 0 19.9 6.1c1.2 2.6 0.1 7.5-1.4 12.1c4.7 1.4 9.2 3.3 13.5 5.6c2.1-4.4 4.8-8.6 7.5-9.5c6.5-2.2 18.5 9.7 18.5 9.7c0 0 12 12.1 9.7 18.5c-0.9 2.6-5.2 5.3-9.5 7.5c2.3 4.2 4.2 8.8 5.6 13.5c4.6-1.6 9.5-2.7 12.1-1.4c6.1 3 6.1 20 6.1 20zm-51.3-0.1c0-17-13.7-30.7-30.7-30.7c-17 0-30.8 13.7-30.8 30.7c0 17 13.8 30.8 30.8 30.8c17 0 30.7-13.8 30.7-30.8z" />
		<g id="Layer" style="opacity: .5">
			<path id="Layer" fill-rule="evenodd" class="s0" d="m1101.2 411.2c-26.1 0-47.2-21.2-47.2-47.2c0-26 21.2-47.1 47.2-47.1c26 0 47.1 21.1 47.1 47.1c0 26.1-21.1 47.2-47.1 47.2zm0-85c-20.9 0-37.8 17-37.8 37.8c0 20.9 16.9 37.8 37.8 37.8c20.8 0 37.8-16.9 37.8-37.8c0-20.8-17-37.8-37.8-37.8z" />
		</g>
	</g>
	<g id="Layer">
		<path id="Layer" class="s1" d="m963.6 127.1c25.3-11.3 40.8 3.5 40.8 3.5c-36.9 56.7-25.5 126.9-25.5 126.9c-22.8 7.3-36.6-8.3-36.6-8.3c-19.9-62.2 21.3-122.1 21.3-122.1z" />
		<path id="Layer" class="s9" d="m1061.9 190.1c15.8 53.9-12.3 130.5-68.9 218.1c-48.8 75.3-115.7 144.5-171.1 153c-25.2 3.9-76.2-28.7-76.2-28.7c28.2-76.8 104.5-75.9 104.5-75.9c0 0 16 13 31.4-0.1c53.9-46.2 103.5-132.8 110-170.2c3.5-20-12.7-28.7-12.7-28.7c0 0-32.1-69.2 26.3-126.4c0 0 49.5 34.4 56.7 58.9z" />
		<path id="Layer" class="s1" d="m827.5 428.4c0 0.1 19.9 6.2 22.6 30c0 0-68.7 18.4-105.2 75.3c0 0-19.9-8.1-20-35.8c0 0 37.8-62.1 102.6-69.4z" />
	</g>
	<g id="Layer">
		<g id="Layer">
			<g id="Layer">
				<path id="Layer" class="s10" d="m556.3 159.8l182.7-7.8c0 0 29 208.2-95 208.2c-124 0-91.5-200.4-91.5-200.4" />
			</g>
			<g id="Layer">
				<g id="Layer">
					<g id="Layer">
						<g id="Layer">
							<g id="Layer">
								<g id="Layer">
									<path id="Layer" class="s11" d="m683.8 300.4l-39.8 59.8l-39.8-55.3l18.3-74.5h21.5h21.5z" />
								</g>
								<path id="Layer" class="s12" d="m673.4 260.6c-16.3 9.2-42.7 0.7-55.4-12l4.5-18.2h21.5h21.5z" />
							</g>
							<g id="Layer">
								<g id="Layer">
									<g id="Layer">
										<path id="Layer" class="s11" d="m567.8 175.7c-16 4.1-28.5-19.8-20.7-29.6c7.8-9.9 20.7 10.9 20.7 10.9z" />
										<path id="Layer" class="s11" d="m720.2 157c0 0 12.9-20.8 20.7-10.9c7.7 9.8-4.8 33.7-20.7 29.6z" />
									</g>
									<g id="Layer">
										<path id="Layer" class="s11" d="m723.6 183.6c-1.7 27.4-18.6 36.8-40.5 54.1c-22 17.2-38.8 15.4-38.8 15.4c0 0-16.8 1.8-38.8-15.4c-22-17.3-38.8-26.7-40.5-54.1c-1.8-27.3-8.7-139.7 79.3-139.7c87.9 0 81 112.4 79.3 139.7z" />
										<path id="Layer" class="s13" d="m723.6 183.7c-1.8 27.4-18.6 36.8-40.5 54c-22 17.3-38.8 15.4-38.8 15.4c0 0-16.9 1.9-38.8-15.4c-22-17.2-38.8-26.7-40.6-54c-0.1-2.8-0.4-6.5-0.5-10.8q0.1 2.7 0.2 4.8c1.8 27.4 18.6 36.8 40.6 54c21.9 17.3 38.8 15.5 38.8 15.5c0 0 16.8 1.8 38.8-15.5c21.9-17.2 38.8-26.6 40.5-54c0.4-7 1.2-19.5 0.6-34.3c1.1 17.4 0.2 32.3-0.3 40.3z" />
									</g>
								</g>
							</g>
							<g id="Layer">
								<path id="Layer" class="s14" d="m739 364.5c0 0 21 46.2-15.7 78.9l-4.4 112.6h-73.2h-0.2h-70.9l-6.7-112.6c-36.7-32.7-15.6-78.9-15.6-78.9l-16.4-75.7l76.7-18.4c0 24.9 30.7 24.8 32.9 24.3q0.1 0 0.1 0q0.1 0 0.1 0c2.3 0.5 30.3 0.6 30.3-24.3l79.4 18.4z" />
								<path id="Layer" class="s15" d="m604 272.5l8.6-2.1c0 24.9 30.7 24.8 32.9 24.3q0 0 0.1 0q0.1 0 0.1 0c2.3 0.5 30.2 0.6 30.2-24.3l8 1.8c-0.4 30.9-35.3 30.8-38.2 30.2q0 0-0.1 0q-0.1 0-0.1 0c-2.8 0.6-40.8 0.7-41.5-29.9z" />
							</g>
						</g>
						<path id="Layer" class="s15" d="m755 288.8c0 0 28.4 9.7 42 42.1c13.6 32.3 46.9 129.8 41.4 151.5c-5.8 23.3-118.4 68.1-118.4 68.1l-17-29.4c0 0 69.6-48.8 81.3-58l-45.3-98.6z" />
						<path id="Layer" class="s15" d="m552.3 364.5l-45.4 98.6c11.6 9.2 81.3 58 81.3 58l-17.1 29.4c0 0-112.6-44.8-118.4-68.1c-5.4-21.7 27.9-119.2 41.5-151.5c13.6-32.4 42-42.1 42-42.1z" />
						<path id="Layer" class="s16" d="m709.8 444.1c-11 6.7-25.8 7.3-41 2.2c-13.4-4.5-23.2-4.8-23.2-4.8c0 0-10-0.1-23.2 4.8c-15 5.5-30.1 4.5-41-2.2c0 0 11 2.5 26.4-2.2c15.3-4.8 29.9-8.8 37.8-8.8c7.9 0 22.4 4 37.8 8.8c15.4 4.7 26.4 2.2 26.4 2.2z" />
						<g id="Layer">
							<path id="Layer" class="s17" d="m738.8 152.1c-1.3-1.2-2.6-1.5-3.7-1.1c2.5 4 2.7 9.1 0.2 13.2c-0.9 1.5-3.2 0.1-2.3-1.3c2-3.3 1.8-7.1 0-10.3c-3 3.7-4.6 12-5.1 14.8c-0.2 1.7-2.8 0.9-2.5-0.7c0.6-4.1 2.7-12.8 6.6-16.7q0.2-0.4 0.6-0.6c2.1-1.8 4.8-2.1 8.1 0.8c1.3 1.1-0.6 3-1.9 1.9z" />
							<path id="Layer" class="s17" d="m548.8 150.2c3.3-2.9 6-2.6 8.2-0.8q0.4 0.2 0.6 0.6c3.8 3.9 5.9 12.6 6.6 16.7c0.2 1.6-2.3 2.4-2.6 0.7c-0.5-2.8-2.1-11.1-5.1-14.8c-1.8 3.2-1.9 7 0.1 10.3c0.9 1.4-1.5 2.8-2.3 1.3c-2.6-4.1-2.3-9.2 0.1-13.2c-1.1-0.4-2.4-0.1-3.7 1.1c-1.3 1.1-3.2-0.8-1.9-1.9z" />
						</g>
					</g>
					<path id="Layer" class="s11" d="m717.8 546.6c0 0-9.4 3.3-16.5 6.1c-7.1 2.9-34.8 7.8-36.6 5.7c-1.7-2.1 10-23.8 13.9-27.3c3.9-3.6 28.3-3.2 28.3-3.2z" />
					<path id="Layer" class="s11" d="m583.2 527.9c0 0 24.5-0.4 28.4 3.2c3.9 3.5 15.6 25.2 13.9 27.3c-1.8 2.1-29.5-2.8-36.6-5.7c-7.1-2.8-16.5-6.1-16.5-6.1z" />
				</g>
				<g id="Layer">
					<path id="Layer" class="s10" d="m552.6 143.4c0 0-8.5-111.5 91.4-111.5c99.9 0 94.9 112.4 94.9 112.4c-7.7-1.9-14.6 7.7-14.6 7.7c-71.7-4.8-106.3-63.3-106.3-63.3c-11.5 41.5-53.8 63.3-53.8 63.3c-6.1-7-11.6-8.6-11.6-8.6z" />
				</g>
			</g>
			<g id="Layer">
				<g id="Layer">
					<path id="Layer" class="s18" d="m559.2 128.8l-12.7-0.1c0-1 1.6-105 99.2-105c97.4 0 98.5 104 98.5 105.1h-12.7c0-3.8-1.2-92.3-85.8-92.3c-35.6 0-61 15.4-75.3 45.7c-10.9 23.1-11.2 46.4-11.2 46.6z" />
				</g>
				<path id="Layer" class="s19" d="m559.2 128.8c0-0.2 0.3-23.5 11.2-46.6c14.3-30.3 39.7-45.7 75.3-45.7c84.6 0 85.8 88.5 85.8 92.3h6.7c-0.6-13.3-7.9-96.9-92.5-96.9c-84.9 0-92.5 83.7-93.1 96.9z" />
			</g>
			<g id="Layer">
				<g id="Layer">
					<g id="Layer">
						<path id="Layer" class="s20" d="m733.5 183.5q-17.6 14.9-35 29.9c-2.9 2.5-6.5-2.1-3.6-4.5q17.4-15 35-30c2.8-2.4 6.4 2.2 3.6 4.6z" />
					</g>
					<g id="Layer">
						<path id="Layer" class="s18" d="m708.2 202.1c2.2 2.8 1.7 6.7-1 8.8l-9.8 7.8c-2.7 2.1-6.6 1.7-8.7-1c-2.2-2.7-1.7-6.7 1-8.8l9.7-7.8c2.7-2.1 6.7-1.7 8.8 1z" />
						<path id="Layer" class="s21" d="m707.2 210.9l-9.8 7.8c-2.3 1.8-5.6 1.7-7.8-0.1c1-0.2 2-0.5 2.9-1.2l9.7-7.8c2.7-2.1 3.2-6.1 1-8.8q-0.4-0.5-0.9-0.9c2.1-0.4 4.4 0.4 5.9 2.2c2.2 2.7 1.7 6.7-1 8.8z" />
					</g>
				</g>
				<g id="Layer">
					<g id="Layer">
						<g id="Layer">
							<path id="Layer" class="s19" d="m570.9 157.7c0 19.6-6 35.6-13.2 35.6h-4.8v-2.5c-5-5.2-8.4-18.1-8.4-33.1c0-15.1 3.4-28 8.4-33.2v-2.5h4.8c7.3 0 13.2 16 13.2 35.7z" />
							<path id="Layer" class="s19" d="m566.1 157.7c0 19.6-6 35.6-13.2 35.6c-1.8 0-3.5-1-5.1-2.7c-5-3.2-12-11.5-12-32.9c0-23.8 8.7-31.8 13.6-34.4c1.1-0.8 2.3-1.3 3.4-1.3c7.3 0 13.2 16 13.3 35.7z" />
							<path id="Layer" class="s18" d="m566.1 157.7c0 19.6-6 35.6-13.2 35.6c-1.8 0-3.5-1-5.1-2.7c-2.1-1.4-4.6-3.7-6.7-7.5c1 1 1.9 1.8 2.9 2.4c1.5 1.7 3.2 2.6 5 2.6c7.3 0 13.2-15.9 13.2-35.6c0-11.9-2.2-22.5-5.6-28.9c5.5 4.3 9.4 17.9 9.5 34.1z" />
						</g>
						<path id="Layer" class="s22" d="m548.2 131.6c0 0-0.1 0.7-0.4 1.8c-0.2 1.1-0.5 2.7-0.9 4.5c-0.1 0.9-0.3 1.9-0.5 2.9q-0.2 1.6-0.5 3.3c-0.2 1.1-0.2 2.2-0.4 3.4q-0.2 1.8-0.4 3.6q-0.2 1.8-0.4 3.6c0 1.2-0.2 2.3-0.2 3.5q-0.1 1.7-0.3 3.3q-0.1 1.7-0.2 3.1c-0.2 1.9-0.2 3.5-0.3 4.7c-0.2 1.2-0.3 1.9-0.3 1.9c0 0-0.3-0.6-0.7-1.7c-0.4-1-1-2.6-1.4-4.5c-0.2-1-0.5-2-0.7-3.2q-0.2-1.7-0.4-3.6c-0.1-1.2-0.1-2.6-0.1-3.9c0-1.3 0.1-2.7 0.2-4.1c0.2-1.3 0.4-2.7 0.6-4c0.3-1.3 0.6-2.6 1-3.8q0.5-1.8 1.2-3.3c0.4-1.1 0.9-2 1.3-2.8c1-1.7 1.9-2.9 2.6-3.6c0.8-0.8 1.2-1.1 1.2-1.1z" />
					</g>
					<g id="Layer">
						<g id="Layer">
							<path id="Layer" class="s19" d="m731.1 122h4.8v2.5c4.9 5.2 8.4 18.1 8.4 33.2c0 15-3.5 27.9-8.4 33.1v2.5h-4.8c-7.3 0-13.2-16-13.2-35.6c0-19.7 5.9-35.7 13.2-35.7z" />
							<path id="Layer" class="s19" d="m735.9 122c1.2 0 2.4 0.5 3.4 1.3c5 2.6 13.7 10.6 13.7 34.4c0 21.4-7 29.7-12.1 32.9c-1.5 1.7-3.2 2.7-5 2.7c-7.3 0-13.2-16-13.2-35.6c0-19.7 5.9-35.7 13.2-35.7z" />
							<path id="Layer" class="s18" d="m732.1 123.6c-3.3 6.4-5.5 17-5.5 28.9c0 19.7 5.9 35.6 13.2 35.6c1.8 0 3.5-0.9 5-2.6c0.9-0.6 1.9-1.4 2.9-2.4c-2.1 3.8-4.6 6.1-6.7 7.5c-1.6 1.7-3.3 2.7-5.1 2.7c-7.2 0-13.2-16-13.2-35.6c0-16.2 4-29.8 9.4-34.1z" />
						</g>
						<path id="Layer" class="s22" d="m741.7 132.7c0.7 0.7 1.7 1.9 2.6 3.6c0.5 0.8 1 1.7 1.4 2.8q0.7 1.5 1.2 3.3c0.4 1.2 0.7 2.5 1 3.8c0.2 1.3 0.4 2.7 0.6 4c0 1.4 0.2 2.8 0.2 4.1c0 1.3 0 2.7-0.1 3.9q-0.2 1.9-0.5 3.6c-0.1 1.2-0.4 2.2-0.6 3.2c-0.4 1.9-1.1 3.5-1.4 4.5c-0.5 1.1-0.8 1.7-0.8 1.7c0 0-0.1-0.7-0.2-1.9c-0.1-1.2-0.2-2.8-0.4-4.7q-0.1-1.4-0.2-3.1q-0.1-1.6-0.2-3.3c-0.1-1.2-0.2-2.3-0.3-3.5q-0.1-1.8-0.3-3.6q-0.2-1.8-0.4-3.6c-0.2-1.2-0.3-2.3-0.5-3.4q-0.2-1.7-0.5-3.3c-0.1-1-0.3-2-0.5-2.9c-0.3-1.8-0.6-3.4-0.8-4.5c-0.3-1.1-0.5-1.8-0.5-1.8c0 0 0.5 0.3 1.2 1.1z" />
					</g>
				</g>
			</g>
		</g>
		<path id="Layer" class="s19" d="m833.6 565c0 4.9-4 9-9 9h-358.1c-4.9 0-9-4.1-9-9c0-5 4.1-9 9-9h358.1c5 0 9 4 9 9z" />
		<g id="Layer">
			<g id="Layer">
				<path id="Layer" class="s19" d="m805.2 541.9c0 9.4-7.6 17-17 17h-285.2c-9.4 0-17.1-7.6-17.1-17v-156.3c0-9.3 7.7-17 17.1-17h285.2c9.4 0 17 7.7 17 17z" />
				<path id="Layer" class="s20" d="m658.2 462.4c0 7-5.7 12.6-12.6 12.6c-7 0-12.6-5.6-12.6-12.6c0-6.9 5.6-12.6 12.6-12.6c6.9 0.1 12.6 5.7 12.6 12.6z" />
			</g>
			<path id="Layer" class="s23" d="m805.2 385.6v156.3c0 9.4-7.6 17-17 17h-285.3c-2.6 0-5-0.6-7.3-1.7c70.2-18.5 227.6-73 231.2-188.6h61.4c9.4 0 17 7.7 17 17z" />
		</g>
	</g>
	<text id="?" style="transform: matrix(1,0,0,1,803.575,199.809)" >
		<tspan x="0" y="0" class="t24">?
</tspan>
	</text>
</svg>